<svg width="161" height="153" viewBox="0 0 161 153" fill="none" xmlns="http://www.w3.org/2000/svg">
<path d="M125.719 139.573C130.282 136.441 134.591 133.069 138.393 129.456L111.272 147.04C116.088 145.113 120.903 142.704 125.719 139.573Z" fill="#FFFBEC"/>
<path d="M89.473 152.339L151.572 112.113C153.346 108.982 154.867 105.851 156.134 102.479L78.3206 152.821C82.1225 153.062 85.6711 152.821 89.473 152.339Z" fill="#FFFBEC"/>
<path d="M160.19 84.4126L58.804 150.171C61.3386 150.894 63.8733 151.375 66.6614 151.857L159.176 91.8797C159.683 89.471 159.937 86.8213 160.19 84.4126Z" fill="#FFFBEC"/>
<path d="M160.444 68.9968L43.8496 144.631C45.8773 145.595 47.9051 146.558 49.9328 147.281L160.697 75.2595C160.697 73.3325 160.697 71.1647 160.444 68.9968Z" fill="#FFFBEC"/>
<path d="M157.656 55.2668L31.4297 137.164C32.9505 138.368 34.7247 139.573 36.499 140.536L159.176 61.0478C158.669 59.1208 158.162 57.1938 157.656 55.2668Z" fill="#FFFBEC"/>
<path d="M152.586 42.9825L21.291 128.252C22.5583 129.697 24.0791 130.901 25.3465 132.106L155.121 48.0409C154.36 46.5957 153.6 44.6687 152.586 42.9825Z" fill="#FFFBEC"/>
<path d="M146.757 33.3473C146.503 32.8656 146.25 32.6247 145.743 32.1429L12.9268 118.376C13.1802 118.858 13.4337 119.339 13.6872 119.58C14.4475 120.785 15.2079 121.748 16.2218 122.711L149.038 36.7195C148.277 35.5152 147.517 34.5517 146.757 33.3473Z" fill="#FFFBEC"/>
<path d="M137.125 22.2673L6.59033 107.055C7.35073 108.741 8.11113 110.427 9.12499 112.113L141.181 26.3622C139.913 24.9169 138.392 23.7126 137.125 22.2673Z" fill="#FFFBEC"/>
<path d="M126.479 13.8368L2.02759 94.5295C2.53452 96.4565 3.04144 98.1426 3.80184 100.07L131.295 17.4499C129.774 16.2455 128.253 15.0412 126.479 13.8368Z" fill="#FFFBEC"/>
<path d="M113.553 6.85132L0 80.5587C0 82.7265 0.253467 84.6535 0.506933 86.8214L119.382 9.7418C117.608 8.77831 115.58 7.81481 113.553 6.85132Z" fill="#FFFBEC"/>
<path d="M97.584 1.79333L1.01357 64.4205C0.506638 66.8292 0.253174 69.238 0.253174 71.6467L104.935 3.72033C102.4 2.9977 100.119 2.27508 97.584 1.79333Z" fill="#FFFBEC"/>
<path d="M76.2929 0.107055L6.84331 45.1504C5.57598 48.0409 4.30866 51.1723 3.2948 54.0628L86.4315 0.107055C83.1365 0.107055 79.8414 -0.133819 76.2929 0.107055Z" fill="#FFFBEC"/>
<path d="M34.9782 13.355C27.6277 18.1725 21.291 23.9535 15.9683 30.4571L58.5505 2.75659C50.4396 4.92445 42.3287 8.53756 34.9782 13.355Z" fill="#FFFBEC"/>
</svg>
