<svg width="313" height="90" viewBox="0 0 313 90" fill="none" xmlns="http://www.w3.org/2000/svg">
<path d="M45.5064 81.3933C66.7376 81.3933 83.9489 64.1734 83.9489 42.9316C83.9489 21.6898 66.7376 4.46997 45.5064 4.46997C24.2752 4.46997 7.06384 21.6898 7.06384 42.9316C7.06384 64.1734 24.2752 81.3933 45.5064 81.3933Z" fill="#FFE02C"/>
<path d="M42.864 59.4138C42.864 59.6575 42.7746 59.8549 42.6112 60.0246C42.4416 60.2035 42.235 60.2837 42.0006 60.2837C41.7478 60.2837 41.5505 60.2035 41.3902 60.0246C41.2298 59.8549 41.1373 59.6575 41.1373 59.4138C41.1373 59.1794 41.2267 58.9727 41.3902 58.803C41.5505 58.6426 41.7478 58.5593 42.0006 58.5593C42.235 58.5593 42.4416 58.6395 42.6112 58.803C42.7746 58.9727 42.864 59.1794 42.864 59.4138Z" fill="#3C3C3B"/>
<path d="M44.5875 66.8173L43.644 67.2585C43.1229 67.5022 42.5926 67.6163 42.0469 67.6163C41.3747 67.6163 40.8166 67.4466 40.3942 67.1042C39.9718 66.7711 39.756 66.3145 39.756 65.7376C39.7837 65.386 39.8731 65.0991 40.0242 64.8677C40.1753 64.6425 40.4836 64.2939 40.9492 63.8065L41.7385 62.9983L44.5875 66.8173Z" fill="#3C3C3B"/>
<path d="M141.866 28.5593L138.607 23.7624H132.375V33.131H138.033L140.685 29.8704V38.0884L138.033 34.8585H132.375V42.148L135.539 44.4184H125.216L127.229 42.4997V23.9537L125.216 22.0349H141.866V28.5593Z" fill="#3C3C3B"/>
<path d="M165.357 44.4185H155.512L157.495 42.5305V42.4997L155.099 37.0334H147.622L145.353 42.148V42.1789L148.485 44.4185H142.155L152.956 20.7239H153.147L163.31 42.691L165.357 44.4185ZM154.362 35.3059L151.39 28.4946L148.387 35.3059H154.362Z" fill="#3C3C3B"/>
<path d="M189.006 44.4184V44.5788C181.304 45.2174 178.844 41.5403 174.527 32.9398C178.618 32.4585 179.895 30.4472 179.895 28.0472C179.895 25.2987 178.137 23.7624 175.581 23.7624H172.991V42.4997L175.005 44.4184H165.832L167.845 42.4997V23.9537L165.832 22.0349H176.281C181.298 22.0349 185.133 23.7285 185.133 27.5999C185.133 30.3485 183.185 32.2364 180.243 33.2606C182.744 38.2796 185.204 42.3701 189.006 44.4184Z" fill="#3C3C3B"/>
<path d="M221.701 44.4185V44.5789C218.217 45.2514 215.596 45.347 211.955 42.7249C210.006 44.036 207.577 44.7393 204.86 44.7393C200.226 44.7393 195.722 42.3085 195.722 37.4498C195.722 34.1892 197.639 31.7583 200.578 30C199.94 28.7198 199.588 27.5074 199.588 26.1964C199.588 22.1367 203.137 19.8015 207.546 19.8015C209.334 19.8015 210.965 20.2797 212.563 21.1434L213.617 20.983V24.7558L209.877 21.9085C209.174 21.6216 208.597 21.5259 207.928 21.5259C205.628 21.5259 204.318 22.6766 204.318 25.1383C204.318 28.0473 206.522 30.3516 210.037 34.4113C211.283 35.818 212.337 37.0025 213.266 37.9928C214.255 36.6509 214.958 34.763 215.023 32.2704L210.676 30.0956H219.176L216.811 32.3969C216.78 35.3707 216.044 37.8015 214.829 39.7203C217.548 42.5645 218.954 43.5239 221.701 44.4185ZM209.556 40.7074C208.533 39.748 207.413 38.6283 206.202 37.2524C204.315 35.1115 202.751 33.3501 201.632 31.7213C200.353 33.1928 199.844 34.7599 199.844 36.2313C199.844 39.3316 202.113 41.3151 206.075 41.3151C207.191 41.3151 208.375 41.1239 209.556 40.7074Z" fill="#3C3C3B"/>
<path d="M248.612 44.5449L246.63 43.3943C244.586 44.3536 242.156 44.7362 240.013 44.7362C232.949 44.7362 227.612 40.6765 227.612 33.4796C227.612 25.7089 233.813 21.7141 240.395 21.7141C242.153 21.7141 244.231 22.001 246.053 22.6087L247.811 21.7141V29.3244L244.231 23.9537C243.05 23.5712 241.962 23.4416 241.034 23.4416C236.335 23.4416 233.076 26.511 233.076 32.3938C233.076 38.2457 236.304 42.2097 240.938 42.2097C241.801 42.2097 242.921 42.0832 244.135 41.6976V36.4226L239.054 33.6092H248.609V44.5449H248.612Z" fill="#3C3C3B"/>
<path d="M274.629 44.4185H264.784L266.767 42.5305V42.4997L264.371 37.0334H256.894L254.625 42.148V42.1789L257.757 44.4185H251.431L262.231 20.7239H262.422L272.585 42.691L274.629 44.4185ZM263.634 35.3059L260.662 28.4946L257.659 35.3059H263.634Z" fill="#3C3C3B"/>
<path d="M292.494 21.3965V28.5595L289.235 23.7625H284.665V42.5307L286.648 44.4186H277.54L279.522 42.5307V23.7625H274.953L271.694 28.5595V21.3965L274.506 22.035H289.688L292.494 21.3965Z" fill="#3C3C3B"/>
<path d="M312.212 37.894V42.6909H312.181V44.4184H294.381L296.394 42.4997V23.9537L294.381 22.0349H311.351V28.5562L308.092 23.7593H301.54V32.0421H306.11L308.7 29.0035V36.6786L306.11 33.7696H301.54V42.6909H308.956L312.212 37.894Z" fill="#3C3C3B"/>
<path d="M44.7849 0C20.0476 0 0 20.0606 0 44.8072C0 69.5475 20.0507 89.605 44.7849 89.605C69.5129 89.605 89.5605 69.5444 89.5605 44.8072C89.5605 20.0576 69.5129 0 44.7849 0ZM37.7951 16.3311C37.8136 16.3434 37.8321 16.3558 37.8506 16.3712C39.2134 17.491 40.4713 18.7187 41.5967 20.0514C42.7252 21.381 43.7304 22.8031 44.5875 24.3023C45.4447 22.8031 46.4529 21.381 47.5783 20.0514C48.7038 18.7187 49.9617 17.491 51.3246 16.3712C51.5774 16.1645 51.9505 16.1984 52.1601 16.4514C52.3667 16.7044 52.3328 17.0776 52.08 17.2874C52.0615 17.3028 52.043 17.3151 52.0245 17.3275L52.0214 17.3306C50.6031 18.2468 49.2526 19.2894 48.01 20.4617C46.7644 21.6308 45.6143 22.9141 44.5906 24.3054C43.567 22.9141 42.4169 21.6308 41.1713 20.4617C39.9287 19.2894 38.5782 18.2468 37.1599 17.3306H37.1568C36.8824 17.1517 36.8022 16.7846 36.9811 16.51C37.1506 16.2324 37.5176 16.1522 37.7951 16.3311ZM62.2394 31.3573C62.2302 31.3604 62.2178 31.3635 62.2055 31.3635C58.706 32.0421 55.3205 33.4025 52.3112 35.3861C50.8096 36.3794 49.3852 37.5054 48.0963 38.7763C46.7952 40.038 45.6235 41.4354 44.5814 42.9285C43.5392 41.4354 42.3676 40.038 41.0664 38.7763C39.7776 37.5054 38.3531 36.3794 36.8516 35.3861C33.8454 33.4025 30.4568 32.0421 26.9573 31.3635C26.6366 31.3018 26.4269 30.9902 26.4886 30.6694C26.5503 30.3485 26.8617 30.1388 27.1823 30.2005C27.1916 30.2036 27.2039 30.2066 27.2163 30.2066C30.8206 31.1105 34.2308 32.7115 37.1907 34.8987C38.6676 35.9938 40.0489 37.2154 41.2792 38.5696C42.5217 39.9115 43.6225 41.3799 44.5814 42.9285C45.5403 41.383 46.6379 39.9146 47.8836 38.5696C49.1138 37.2154 50.4951 35.9938 51.972 34.8987C54.9289 32.7085 58.3421 31.1074 61.9465 30.2066C62.2641 30.1264 62.5847 30.3177 62.6649 30.6354C62.7482 30.9532 62.557 31.2771 62.2394 31.3573ZM64.4563 33.4889C64.7831 33.4365 65.0853 33.6586 65.1346 33.9825C65.184 34.3064 64.9651 34.6087 64.6413 34.6581C64.6321 34.6581 64.6228 34.6611 64.6136 34.6611C60.6608 35.0868 56.7851 36.364 53.341 38.4308C51.6205 39.4642 50.0049 40.6796 48.5342 42.0647C47.0665 43.4467 45.7345 44.9892 44.5845 46.6581C43.4313 44.9892 42.1024 43.4467 40.6348 42.0647C39.1671 40.6796 37.5484 39.4642 35.8279 38.4308C32.3839 36.364 28.5082 35.0868 24.5554 34.6611C24.2316 34.6272 23.9942 34.3342 24.0312 34.0102C24.0651 33.6863 24.358 33.4488 24.6818 33.4858C24.691 33.4858 24.7003 33.4889 24.7095 33.4889H24.7126C28.8011 34.1306 32.7353 35.6514 36.1424 37.9311C37.8475 39.0694 39.4261 40.3835 40.8414 41.855C42.2566 43.3233 43.5146 44.9336 44.5845 46.6581C45.6544 44.9336 46.9124 43.3203 48.3276 41.855C49.7428 40.3866 51.3215 39.0724 53.0265 37.9311C56.4336 35.6514 60.3679 34.1306 64.4563 33.4889ZM59.9763 28.2324C59.964 28.2355 59.9516 28.2416 59.9424 28.2447C58.4161 28.6766 56.9177 29.2288 55.4839 29.9259C54.044 30.6139 52.6627 31.4282 51.3585 32.3599C50.0542 33.2946 48.824 34.3372 47.6893 35.4848C46.5578 36.6323 45.5156 37.8755 44.5875 39.2051C43.6626 37.8755 42.6173 36.6323 41.4857 35.4848C40.3511 34.3403 39.1209 33.2946 37.8166 32.3599C36.5124 31.4282 35.1311 30.6108 33.6912 29.9259C32.2575 29.2288 30.759 28.6766 29.2327 28.2447C28.9182 28.1552 28.7332 27.8282 28.8226 27.5136C28.9121 27.1989 29.2389 27.0138 29.5534 27.1033C29.5657 27.1064 29.5781 27.1095 29.5873 27.1156C31.1475 27.6617 32.6645 28.328 34.0982 29.1362C35.5381 29.9352 36.904 30.8575 38.1743 31.8879C39.4446 32.9213 40.6255 34.0565 41.7016 35.2812C42.7715 36.509 43.7427 37.82 44.5875 39.2051C45.4324 37.82 46.4005 36.512 47.4735 35.2812C48.5465 34.0565 49.7274 32.9213 51.0008 31.8879C52.2711 30.8575 53.637 29.9321 55.0769 29.1362C56.5107 28.328 58.0276 27.6586 59.5878 27.1156C59.8961 27.0077 60.2353 27.1712 60.3432 27.4797C60.445 27.7882 60.2846 28.1244 59.9763 28.2324ZM57.8735 25.2586C57.8611 25.2648 57.8488 25.2709 57.8365 25.274L57.7902 25.2925L55.8539 26.0915C55.2218 26.3876 54.5898 26.693 53.9793 27.0385C52.7521 27.7172 51.5712 28.4915 50.452 29.3521C49.3358 30.2128 48.2813 31.1629 47.2978 32.1871C46.3142 33.2113 45.4077 34.3126 44.5875 35.4786C43.7643 34.3126 42.8578 33.2113 41.8773 32.1871C40.8938 31.1629 39.8393 30.2128 38.7231 29.3521C37.607 28.4915 36.4261 27.7172 35.1958 27.0385C34.5853 26.693 33.9533 26.3876 33.3212 26.0915L31.3849 25.2925L31.3417 25.274C31.0396 25.1506 30.8946 24.802 31.021 24.4997C31.1444 24.1974 31.4928 24.0524 31.795 24.1789C31.8073 24.1851 31.8196 24.1912 31.8319 24.1974L33.7868 25.1691C34.4219 25.5208 35.0509 25.8817 35.6552 26.2797C36.8731 27.0663 38.0263 27.9424 39.1024 28.8987C40.1815 29.855 41.1805 30.8915 42.0993 31.9928C43.0181 33.094 43.8506 34.2632 44.5906 35.4817C45.3306 34.2632 46.1631 33.094 47.0819 31.9928C48.0008 30.8915 49.0028 29.855 50.0789 28.8987C51.155 27.9424 52.3112 27.0663 53.526 26.2797C54.1303 25.8817 54.7624 25.5208 55.3976 25.1691L57.3524 24.1974C57.6453 24.0524 57.9999 24.1727 58.1479 24.4658C58.2866 24.7558 58.1664 25.1105 57.8735 25.2586ZM55.8108 22.4668C55.7984 22.473 55.783 22.4822 55.7707 22.4884L55.7614 22.4915C54.6638 23.0036 53.5939 23.5743 52.5579 24.2159C51.5281 24.8668 50.5414 25.5825 49.5979 26.3629C47.714 27.9239 46.0213 29.7378 44.5875 31.7521C43.1538 29.7378 41.4611 27.9239 39.5772 26.3629C38.6337 25.5825 37.644 24.8668 36.6172 24.2159C35.5843 23.5743 34.5113 23.0036 33.4137 22.4915L33.4044 22.4884C33.1084 22.3496 32.9789 21.9979 33.1177 21.7018C33.2564 21.4056 33.6079 21.2761 33.9039 21.4149C33.9193 21.4211 33.9317 21.4303 33.9471 21.4365C35.0447 22.0596 36.1085 22.7383 37.1167 23.4848C38.1219 24.2375 39.0746 25.055 39.9719 25.9249C41.7633 27.6678 43.3172 29.6329 44.5875 31.7552C45.8579 29.6329 47.4119 27.6678 49.2033 25.9249C50.1005 25.055 51.0532 24.2375 52.0584 23.4848C53.0697 22.7383 54.1304 22.0596 55.228 21.4365C55.5117 21.2761 55.8755 21.3748 56.0358 21.6586C56.1962 21.9455 56.0944 22.3064 55.8108 22.4668ZM53.8899 19.8046C53.8744 19.8139 53.859 19.8231 53.8436 19.8324L53.8374 19.8355C52.9402 20.3352 52.0645 20.8781 51.2166 21.4673C50.3718 22.0627 49.5609 22.7074 48.7839 23.3953C47.2299 24.7712 45.8147 26.3228 44.5845 28.0257C43.3542 26.3259 41.939 24.7712 40.385 23.3953C39.608 22.7074 38.794 22.0627 37.9523 21.4673C37.1044 20.875 36.2287 20.3321 35.3315 19.8355L35.3253 19.8324C35.0386 19.672 34.9368 19.311 35.0941 19.0272C35.2544 18.7403 35.6152 18.6385 35.8988 18.7959C35.9142 18.8051 35.9297 18.8144 35.9451 18.8236C36.83 19.4313 37.681 20.0761 38.4919 20.7671C39.3028 21.4612 40.0674 22.1984 40.792 22.9727C42.2412 24.5213 43.5146 26.218 44.5783 28.0257C45.642 26.218 46.9154 24.5213 48.3646 22.9727C49.0892 22.1984 49.8569 21.4612 50.6647 20.7671C51.4756 20.0761 52.3297 19.4313 53.2115 18.8236C53.4829 18.6385 53.8498 18.7064 54.0348 18.9779C54.229 19.2493 54.1612 19.6195 53.8899 19.8046ZM28.8196 59.0005H23.1895V62.2519H27.1947V64.1922H23.1895V69.3747H21.2686V57.0694H28.8196V59.0005ZM46.4622 69.3223L45.7253 68.3352L45.0778 68.6776C44.2792 69.1434 43.2987 69.3778 42.1425 69.3778C40.9493 69.3778 39.9163 69.0631 39.0715 68.4246C38.2267 67.786 37.8043 66.8883 37.8043 65.7285C37.8043 64.803 38.128 63.9948 38.7755 63.313L40.5885 61.3819L40.1568 60.8328C39.7437 60.3115 39.5741 59.7902 39.6173 59.2442C39.6635 58.6858 39.904 58.1922 40.3634 57.7542C40.829 57.3223 41.3593 57.0971 41.9513 57.0724H42.1024C42.5433 57.0724 42.9472 57.1897 43.3234 57.4303C43.6903 57.6832 43.9709 58.0133 44.1405 58.4359C44.3285 58.8493 44.3933 59.2719 44.3193 59.7192C44.2576 60.1603 44.0757 60.5459 43.789 60.8791L43.0983 61.5516L46.0799 65.602L47.0573 64.9449L48.1611 66.5521L47.2731 67.1814L48.8548 69.3192H46.4622V69.3223ZM67.5643 67.9742C66.4882 68.9089 65.258 69.3747 63.8828 69.3747C62.2394 69.3747 60.8396 68.7732 59.6803 67.5701C58.5117 66.3578 57.929 64.911 57.929 63.2051C57.929 61.5084 58.5117 60.0709 59.6803 58.8647C60.8396 57.6709 62.2394 57.0694 63.8828 57.0694C65.0421 57.0694 66.1182 57.3933 67.1141 58.0318L65.8037 59.5126C65.2302 59.1794 64.5827 59.0189 63.8828 59.0189C62.7697 59.0189 61.8263 59.4231 61.0462 60.2498C60.2569 61.0673 59.8622 62.0544 59.8622 63.2051C59.8622 64.3742 60.2569 65.3614 61.0462 66.1973C61.8263 67.0333 62.7697 67.4467 63.8828 67.4467C64.5303 67.4467 65.1501 67.2863 65.7513 66.9532C66.3433 66.6292 66.8366 66.1819 67.2313 65.5866L67.6629 64.9665L65.5262 63.0879L66.8027 61.6318L69.812 64.2632C69.3865 65.7994 68.6311 67.0395 67.5643 67.9742ZM67.9682 41.3892C66.6115 41.5496 65.2611 41.7254 63.9229 41.9568C62.5817 42.1912 61.2528 42.4658 59.93 42.7773C57.2876 43.4128 54.6884 44.221 52.1324 45.1835C49.5794 46.1552 47.0819 47.2904 44.5875 48.5151C42.0901 47.2904 39.5957 46.1521 37.0427 45.1835C34.4867 44.221 31.8874 43.4128 29.2451 42.7773C27.9223 42.4627 26.5904 42.1912 25.2522 41.9568C23.911 41.7254 22.5605 41.5465 21.2069 41.3892C18.4905 41.093 15.7526 40.9727 12.9714 40.9264C15.6878 40.3187 18.4905 40.0874 21.2871 40.1583C24.0867 40.2108 26.8833 40.5933 29.6151 41.2442C32.3438 41.9074 35.0078 42.8359 37.5268 44.0575C40.0489 45.2668 42.4447 46.7413 44.5875 48.5182C42.5742 46.7413 40.4158 45.1557 38.1157 43.8354C35.8279 42.4935 33.3952 41.4293 30.8915 40.6118C30.2626 40.4205 29.6336 40.2231 28.9953 40.0658C28.6777 39.9763 28.3602 39.893 28.0395 39.8221C27.7188 39.7511 27.4013 39.6647 27.0775 39.6061C25.7918 39.3316 24.4906 39.1496 23.1833 39.0262C20.5718 38.7671 17.9355 38.7917 15.3363 39.1156L13.4031 39.3563L14.6272 37.8416L19.5203 31.7861C21.173 29.784 22.8072 27.7696 24.4814 25.7861C26.1402 23.7902 27.8267 21.8159 29.5164 19.8447C31.2184 17.8828 32.9204 15.9208 34.6717 13.999C33.1855 16.1337 31.6469 18.2252 30.1115 20.3198C28.5637 22.4051 27.0097 24.4843 25.431 26.545C23.8678 28.618 22.2645 30.657 20.6766 32.7115L16.989 37.3851C19.1072 37.2462 21.2347 37.2956 23.3406 37.53C26.0569 37.857 28.7394 38.4832 31.2955 39.4395C32.5689 39.9239 33.8238 40.4637 35.0324 41.0868C36.238 41.7192 37.4066 42.4133 38.5289 43.1753C40.7612 44.7115 42.8239 46.4915 44.5845 48.5213C43.1692 46.6519 41.5721 44.946 39.8084 43.4467C38.0479 41.9475 36.1239 40.6642 34.0828 39.6246C33.0683 39.0879 32.0046 38.6652 30.9378 38.2611C29.8679 37.8663 28.7733 37.5362 27.6633 37.2771C25.4464 36.7527 23.171 36.475 20.8955 36.4874L19.2336 36.4997L20.2788 35.2072L24.392 30.1264C25.7856 28.4514 27.1577 26.7578 28.5729 25.1013C29.9727 23.4324 31.4003 21.782 32.8309 20.1347C34.2739 18.4997 35.7169 16.8617 37.2123 15.2668C35.9882 17.0776 34.7087 18.8452 33.4353 20.6159C32.1465 22.3743 30.8515 24.1295 29.5349 25.8663C28.2307 27.6154 26.8863 29.3275 25.5574 31.055L22.4772 34.9665C24.3519 35.0776 26.2142 35.3583 28.0241 35.8396C30.3396 36.4689 32.5843 37.3665 34.6501 38.5758C34.9122 38.7208 35.1681 38.8719 35.4209 39.0323C35.6737 39.1928 35.9297 39.347 36.1794 39.5105C36.6727 39.8468 37.163 40.1861 37.6316 40.5562C38.572 41.2843 39.4816 42.0555 40.3141 42.9038C41.9822 44.5881 43.4436 46.4699 44.5875 48.5213C45.7284 46.4699 47.1929 44.5881 48.861 42.9038C49.6935 42.0586 50.6031 41.2874 51.5435 40.5562C52.0121 40.1861 52.5024 39.8468 52.9957 39.5105C53.2454 39.347 53.5014 39.1928 53.7542 39.0323C54.0039 38.8688 54.2629 38.7177 54.525 38.5758C56.5908 37.3665 58.8355 36.4658 61.151 35.8396C62.964 35.3583 64.8263 35.0776 66.6979 34.9665L63.6177 31.055C62.2918 29.3244 60.9444 27.6123 59.6402 25.8663C58.3205 24.1295 57.0287 22.3743 55.7398 20.6159C54.4634 18.8452 53.1869 17.0776 51.9628 15.2668C53.4582 16.8617 54.8981 18.4997 56.3442 20.1347C57.7748 21.782 59.1993 23.4293 60.6022 25.1013C62.0174 26.7578 63.3926 28.4514 64.7831 30.1264L68.8963 35.2072L69.9415 36.4997L68.2796 36.4874C66.0041 36.4719 63.7287 36.7527 61.5118 37.2771C60.4018 37.5362 59.3072 37.8663 58.2373 38.2611C57.1705 38.6652 56.1067 39.091 55.0923 39.6246C53.0512 40.6611 51.1241 41.9475 49.3667 43.4467C47.6061 44.9429 46.0059 46.6488 44.5906 48.5213C46.3543 46.4915 48.4139 44.7146 50.6462 43.1753C51.7686 42.4164 52.9371 41.7192 54.1427 41.0868C55.3513 40.4637 56.6062 39.9269 57.8796 39.4395C60.4357 38.4832 63.1182 37.857 65.8345 37.53C67.9404 37.2956 70.0679 37.2462 72.1861 37.3851L68.4954 32.7115C66.9075 30.657 65.3042 28.618 63.741 26.545C62.1623 24.4843 60.6084 22.4051 59.0605 20.3198C57.5251 18.2252 55.9865 16.1337 54.5004 13.999C56.2547 15.9208 57.9536 17.8828 59.6556 19.8447C61.3453 21.8159 63.0318 23.7902 64.6906 25.7861C66.3649 27.7696 67.999 29.784 69.6517 31.7861L74.5449 37.8416L75.7689 39.3563L73.8357 39.1156C71.2365 38.7917 68.5972 38.7671 65.9887 39.0262C64.6845 39.1496 63.3802 39.3316 62.0945 39.6061C61.7708 39.6647 61.4532 39.7511 61.1325 39.8221C60.8119 39.893 60.4943 39.9763 60.1767 40.0658C59.5384 40.2231 58.9095 40.4205 58.2805 40.6118C55.7768 41.4293 53.3441 42.4935 51.0563 43.8354C48.7562 45.1588 46.5948 46.7413 44.5845 48.5182C46.7273 46.7413 49.1231 45.2668 51.6452 44.0575C54.1643 42.8359 56.8313 41.9074 59.5569 41.2442C62.2887 40.5933 65.0853 40.2138 67.8849 40.1583C70.6815 40.0874 73.4842 40.3187 76.2006 40.9264C73.4225 40.9727 70.6815 41.093 67.9682 41.3892Z" fill="#3C3C3B"/>
<path d="M109.571 0H107.746V89.6081H109.571V0Z" fill="#3C3C3B"/>
<path d="M270.294 53.5618C269.348 53.5618 268.552 53.935 267.908 54.6785C267.263 55.4219 266.939 56.3535 266.939 57.4702C266.939 58.5746 267.263 59.5001 267.908 60.2435C268.552 60.99 269.351 61.3602 270.294 61.3602C271.247 61.3602 272.042 60.99 272.687 60.2466C273.328 59.5062 273.652 58.5777 273.652 57.4672C273.652 56.3505 273.331 55.4219 272.687 54.6754C272.045 53.935 271.247 53.5618 270.294 53.5618Z" fill="url(#paint0_linear)"/>
<path d="M284.576 53.5618C283.629 53.5618 282.834 53.935 282.189 54.6785C281.545 55.4219 281.221 56.3535 281.221 57.4702C281.221 58.5746 281.545 59.5001 282.189 60.2435C282.834 60.99 283.632 61.3602 284.576 61.3602C285.529 61.3602 286.324 60.99 286.969 60.2466C287.61 59.5062 287.934 58.5777 287.934 57.4672C287.934 56.3505 287.613 55.4219 286.969 54.6754C286.324 53.935 285.526 53.5618 284.576 53.5618Z" fill="url(#paint1_linear)"/>
<path d="M305.629 48.512L290.875 48.5181H164.956H109.568V65.9814H164.956H290.875H305.629H312.07V48.512H305.629Z" fill="url(#paint2_linear)"/>
<path d="M249.476 58.8067C249.476 59.5255 249.272 60.1579 248.862 60.7039C248.504 61.1851 248.039 61.546 247.462 61.7805C246.932 61.9995 246.3 62.1075 245.566 62.1075C244.653 62.1075 243.759 61.8977 242.881 61.4813L242.803 61.3393C242.924 60.8396 242.985 60.1301 242.985 59.2077L243.05 59.1429H243.466L243.525 59.2077V59.3589C243.525 59.6026 243.55 59.9234 243.602 60.3245C243.759 60.6021 244.04 60.8427 244.444 61.0432C244.866 61.253 245.304 61.3548 245.76 61.3548C246.621 61.3548 247.216 61.0555 247.546 60.454C247.715 60.1455 247.801 59.8247 247.801 59.4946C247.801 58.9393 247.57 58.5414 247.105 58.3008C246.873 58.1836 246.503 58.0849 245.992 58.0077C244.832 57.8288 244.068 57.6067 243.704 57.3352C243.152 56.928 242.877 56.2926 242.877 55.4381C242.877 54.5465 243.177 53.8371 243.778 53.3065C244.413 52.7512 245.295 52.4705 246.423 52.4705C247.441 52.4705 248.261 52.6339 248.887 52.9609L248.933 53.1183C248.828 53.6365 248.767 54.2566 248.745 54.9846L248.674 55.0494H248.264L248.199 54.9846C248.187 54.4633 248.165 54.1239 248.134 53.9666C247.999 53.763 247.764 53.5872 247.431 53.4453C247.074 53.2972 246.704 53.2232 246.315 53.2232C245.733 53.2232 245.273 53.3774 244.934 53.6859C244.616 53.979 244.459 54.3522 244.459 54.8149C244.459 55.3147 244.638 55.6818 244.999 55.9162C245.233 56.0674 245.788 56.2154 246.661 56.3542C246.753 56.3666 247.006 56.4098 247.422 56.4838C247.678 56.527 247.916 56.5918 248.131 56.672C248.569 56.8386 248.899 57.0885 249.121 57.4278C249.355 57.7949 249.476 58.2545 249.476 58.8067Z" fill="#3C3C3B"/>
<path d="M260.064 60.6786L259.765 61.3449C258.849 61.8478 257.822 62.1007 256.688 62.1007C254.418 62.1007 252.867 61.2832 252.035 59.6483C251.649 58.8925 251.455 58.0719 251.455 57.1897C251.455 55.7645 251.93 54.6262 252.877 53.7778C253.845 52.9048 255.167 52.4668 256.848 52.4668C257.912 52.4668 258.954 52.6611 259.971 53.0467L260.055 53.1455C259.907 53.747 259.817 54.4473 259.78 55.2524L259.722 55.3172H259.336L259.271 55.2462C259.259 54.7187 259.234 54.3547 259.2 54.1511C258.658 53.5373 257.872 53.2318 256.848 53.2318C255.793 53.2318 254.964 53.565 254.366 54.2375C253.765 54.9069 253.466 55.8169 253.466 56.9645C253.466 58.5162 253.999 59.7069 255.069 60.5367C255.639 60.9809 256.401 61.203 257.357 61.203C258.226 61.203 259.074 60.9778 259.906 60.5305L260.064 60.6786Z" fill="#3C3C3B"/>
<path d="M271.851 61.7923L271.786 61.8571C271.358 61.8324 270.686 61.817 269.779 61.817C268.848 61.817 268.179 61.8293 267.772 61.8571L267.707 61.7985V61.3543L267.778 61.2895C268.222 61.2648 268.475 61.2401 268.54 61.2247C268.666 61.1907 268.74 61.1105 268.762 60.9841C268.817 60.6725 268.845 59.9969 268.845 58.9635V57.3934C268.623 57.3718 267.92 57.3594 266.733 57.3594C265.638 57.3594 264.917 57.3718 264.568 57.3934V58.9635C264.568 59.9969 264.596 60.6725 264.655 60.9841C264.676 61.1105 264.75 61.1907 264.877 61.2247C264.942 61.2432 265.197 61.2648 265.638 61.2895L265.703 61.3543V61.7923L265.645 61.8571C265.21 61.8324 264.541 61.817 263.637 61.817C262.703 61.817 262.034 61.8293 261.63 61.8571L261.565 61.7985V61.3543L261.63 61.2895C262.074 61.2648 262.327 61.2401 262.392 61.2247C262.518 61.1907 262.592 61.1105 262.614 60.9841C262.669 60.6725 262.697 59.9969 262.697 58.9635V55.5147C262.697 54.4812 262.669 53.8057 262.614 53.4941C262.592 53.3676 262.518 53.2874 262.392 53.2535C262.327 53.235 262.071 53.2134 261.63 53.1887L261.565 53.1239V52.6797L261.63 52.6211C262.046 52.6458 262.715 52.6612 263.637 52.6612C264.581 52.6612 265.25 52.6489 265.645 52.6211L265.703 52.6797V53.1301L265.638 53.1887C265.194 53.2134 264.942 53.2381 264.877 53.2535C264.75 53.2874 264.676 53.3676 264.655 53.4941C264.599 53.8057 264.568 54.4812 264.568 55.5147V56.5913C265.028 56.6129 265.663 56.6252 266.471 56.6252C267.741 56.6252 268.53 56.6129 268.845 56.5913V55.5147C268.845 54.4812 268.817 53.8057 268.762 53.4941C268.74 53.3676 268.666 53.2874 268.54 53.2535C268.475 53.235 268.219 53.2134 267.778 53.1887L267.707 53.1239V52.6797L267.772 52.6211C268.194 52.6458 268.863 52.6612 269.779 52.6612C270.726 52.6612 271.395 52.6489 271.786 52.6211L271.851 52.6797V53.1301L271.793 53.1887C271.339 53.2134 271.083 53.2381 271.022 53.2535C270.895 53.2874 270.821 53.3676 270.8 53.4941C270.744 53.8057 270.717 54.4812 270.717 55.5147V58.9635C270.717 59.9969 270.744 60.6725 270.8 60.9841C270.821 61.1105 270.895 61.1907 271.022 61.2247C271.087 61.2432 271.342 61.2648 271.783 61.2895L271.848 61.3543V61.7923H271.851Z" fill="#3C3C3B"/>
<path d="M283.444 57.0015C283.444 58.6056 282.979 59.8642 282.045 60.7773C281.135 61.6658 279.896 62.1069 278.323 62.1069C276.837 62.1069 275.671 61.6874 274.824 60.8514C273.976 60.0154 273.553 58.8493 273.553 57.3593C273.553 55.2678 274.352 53.821 275.946 53.0159C276.67 52.6519 277.565 52.4668 278.625 52.4668C280.142 52.4668 281.323 52.8647 282.165 53.6606C283.016 54.4688 283.444 55.5825 283.444 57.0015ZM281.434 57.3408C281.434 56.0791 281.181 55.0797 280.676 54.3362C280.17 53.5959 279.427 53.2257 278.45 53.2257C277.158 53.2257 276.304 53.8056 275.881 54.9655C275.662 55.5609 275.554 56.2272 275.554 56.9676C275.554 58.3095 275.801 59.3706 276.297 60.1511C276.809 60.9562 277.577 61.3573 278.598 61.3573C279.837 61.3573 280.67 60.7465 281.095 59.5249C281.323 58.8771 281.434 58.1491 281.434 57.3408Z" fill="#3C3C3B"/>
<path d="M295.232 57.0015C295.232 58.6056 294.766 59.8642 293.832 60.7773C292.922 61.6658 291.683 62.1069 290.11 62.1069C288.624 62.1069 287.459 61.6874 286.611 60.8514C285.763 60.0154 285.341 58.8493 285.341 57.3593C285.341 55.2678 286.139 53.821 287.733 53.0159C288.458 52.6519 289.352 52.4668 290.413 52.4668C291.93 52.4668 293.11 52.8647 293.952 53.6606C294.803 54.4688 295.232 55.5825 295.232 57.0015ZM293.225 57.3408C293.225 56.0791 292.972 55.0797 292.466 54.3362C291.96 53.5959 291.217 53.2257 290.24 53.2257C288.948 53.2257 288.094 53.8056 287.672 54.9655C287.453 55.5609 287.345 56.2272 287.345 56.9676C287.345 58.3095 287.591 59.3706 288.088 60.1511C288.6 60.9562 289.367 61.3573 290.388 61.3573C291.627 61.3573 292.46 60.7465 292.885 59.5249C293.111 58.8771 293.225 58.1491 293.225 57.3408Z" fill="#3C3C3B"/>
<path d="M304.106 59.6422C304.01 60.2776 303.961 60.9933 303.961 61.7954L303.896 61.8602L299.157 61.8201C298.364 61.8201 297.806 61.8324 297.483 61.8602L297.418 61.7954V61.6134L297.452 61.5362C297.772 61.3326 297.948 61.2031 297.973 61.1506C298.013 61.0735 298.034 60.7836 298.044 60.2838L298.062 58.8216V55.5147C298.062 54.4812 298.034 53.8057 297.979 53.4941C297.957 53.3676 297.883 53.2874 297.757 53.2535C297.692 53.235 297.436 53.2134 296.995 53.1887L296.931 53.1239V52.6797L296.995 52.6211C297.442 52.6458 298.099 52.6612 298.963 52.6612C299.857 52.6612 300.538 52.6489 301.004 52.6211L301.068 52.6797V53.1301L301.004 53.1887C300.56 53.2134 300.307 53.2381 300.242 53.2535C300.116 53.2874 300.042 53.3676 300.02 53.4941C299.965 53.8057 299.934 54.4812 299.934 55.5147V59.4139C299.934 59.9846 299.946 60.5368 299.968 61.0704H300.856C302.126 61.0704 302.903 61.0211 303.19 60.9193C303.239 60.9008 303.273 60.8792 303.295 60.8483C303.338 60.7866 303.378 60.6571 303.418 60.4566L303.575 59.6483L303.64 59.5774H304.038L304.106 59.6422Z" fill="#3C3C3B"/>
<defs>
<linearGradient id="paint0_linear" x1="108.033" y1="57.0176" x2="308.287" y2="57.5655" gradientUnits="userSpaceOnUse">
<stop stop-color="white"/>
<stop offset="0.0559" stop-color="#FFFBEE"/>
<stop offset="0.1926" stop-color="#FFF1C3"/>
<stop offset="0.3311" stop-color="#FFE99B"/>
<stop offset="0.4686" stop-color="#FEE277"/>
<stop offset="0.6049" stop-color="#FEDC56"/>
<stop offset="0.7396" stop-color="#FDD93C"/>
<stop offset="0.8722" stop-color="#FDD728"/>
<stop offset="1" stop-color="#FDD620"/>
</linearGradient>
<linearGradient id="paint1_linear" x1="108.032" y1="56.9785" x2="308.288" y2="57.5264" gradientUnits="userSpaceOnUse">
<stop stop-color="white"/>
<stop offset="0.0559" stop-color="#FFFBEE"/>
<stop offset="0.1926" stop-color="#FFF1C3"/>
<stop offset="0.3311" stop-color="#FFE99B"/>
<stop offset="0.4686" stop-color="#FEE277"/>
<stop offset="0.6049" stop-color="#FEDC56"/>
<stop offset="0.7396" stop-color="#FDD93C"/>
<stop offset="0.8722" stop-color="#FDD728"/>
<stop offset="1" stop-color="#FDD620"/>
</linearGradient>
<linearGradient id="paint2_linear" x1="108.033" y1="56.9661" x2="308.288" y2="57.5139" gradientUnits="userSpaceOnUse">
<stop stop-color="white"/>
<stop offset="0.0559" stop-color="#FFFBEE"/>
<stop offset="0.1926" stop-color="#FFF1C3"/>
<stop offset="0.3311" stop-color="#FFE99B"/>
<stop offset="0.4686" stop-color="#FEE277"/>
<stop offset="0.6049" stop-color="#FEDC56"/>
<stop offset="0.7396" stop-color="#FDD93C"/>
<stop offset="0.8722" stop-color="#FDD728"/>
<stop offset="1" stop-color="#FDD620"/>
</linearGradient>
</defs>
</svg>
