<?xml version="1.0" encoding="utf-8"?>
<!-- Generator: Adobe Illustrator 23.0.3, SVG Export Plug-In . SVG Version: 6.00 Build 0)  -->
<svg version="1.1" id="Слой_1" xmlns="http://www.w3.org/2000/svg" xmlns:xlink="http://www.w3.org/1999/xlink" x="0px" y="0px"
	 viewBox="0 0 2104.89 2019.56" style="enable-background:new 0 0 2104.89 2019.56;" xml:space="preserve">
<style type="text/css">
	.st0{fill:#FFE02C;}
	.st1{fill:#3C3C3B;}
	.st2{fill:url(#SVGID_1_);}
	.st3{fill:url(#SVGID_2_);}
	.st4{fill:url(#SVGID_3_);}
</style>
<g>
	<g>
		<circle class="st0" cx="676.34" cy="1011.43" r="124.68"/>
	</g>
	<g>
		<g>
			<g>
				<path class="st1" d="M667.77,1064.86c0,0.79-0.29,1.43-0.82,1.98c-0.55,0.58-1.22,0.84-1.98,0.84c-0.82,0-1.46-0.26-1.98-0.84
					c-0.52-0.55-0.82-1.19-0.82-1.98c0-0.76,0.29-1.43,0.82-1.98c0.52-0.52,1.16-0.79,1.98-0.79c0.76,0,1.43,0.26,1.98,0.79
					C667.48,1063.43,667.77,1064.1,667.77,1064.86z"/>
				<path class="st1" d="M673.36,1088.86l-3.06,1.43c-1.69,0.79-3.41,1.16-5.18,1.16c-2.18,0-3.99-0.55-5.36-1.66
					c-1.37-1.08-2.07-2.56-2.07-4.43c0.09-1.14,0.38-2.07,0.87-2.82c0.49-0.73,1.49-1.86,3-3.44l2.56-2.62L673.36,1088.86z"/>
			</g>
		</g>
		<g>
			<path class="st1" d="M988.86,964.84l-10.57-15.55h-20.21v30.37h18.35l8.6-10.57v26.64l-8.6-10.47h-18.35v23.63l10.26,7.36h-33.48
				l6.53-6.22v-60.12l-6.53-6.22h54V964.84z"/>
			<path class="st1" d="M1065.05,1016.25h-31.93l6.43-6.12v-0.1l-7.77-17.72h-24.25l-7.36,16.58v0.1l10.16,7.26H989.8l35.03-76.81
				h0.62l32.96,71.21L1065.05,1016.25z M1029.39,986.71l-9.64-22.08l-9.74,22.08H1029.39z"/>
			<path class="st1" d="M1141.75,1016.25v0.52c-24.98,2.07-32.96-9.85-46.96-37.73c13.27-1.56,17.41-8.08,17.41-15.86
				c0-8.91-5.7-13.89-13.99-13.89h-8.4v60.74l6.53,6.22h-29.75l6.53-6.22v-60.12l-6.53-6.22h33.89c16.27,0,28.71,5.49,28.71,18.04
				c0,8.91-6.32,15.03-15.86,18.35C1121.44,996.35,1129.42,1009.61,1141.75,1016.25z"/>
			<path class="st1" d="M1247.79,1016.25v0.52c-11.3,2.18-19.8,2.49-31.61-6.01c-6.32,4.25-14.2,6.53-23.01,6.53
				c-15.03,0-29.64-7.88-29.64-23.63c0-10.57,6.22-18.45,15.75-24.15c-2.07-4.15-3.21-8.08-3.21-12.33
				c0-13.16,11.51-20.73,25.81-20.73c5.8,0,11.09,1.55,16.27,4.35l3.42-0.52v12.23l-12.13-9.23c-2.28-0.93-4.15-1.24-6.32-1.24
				c-7.46,0-11.71,3.73-11.71,11.71c0,9.43,7.15,16.9,18.55,30.06c4.04,4.56,7.46,8.4,10.47,11.61c3.21-4.35,5.49-10.47,5.7-18.55
				l-14.1-7.05h27.57l-7.67,7.46c-0.1,9.64-2.49,17.52-6.43,23.74C1234.32,1010.24,1238.88,1013.35,1247.79,1016.25z
				 M1208.4,1004.22c-3.32-3.11-6.95-6.74-10.88-11.2c-6.12-6.94-11.19-12.65-14.82-17.93c-4.15,4.77-5.8,9.85-5.8,14.62
				c0,10.05,7.36,16.48,20.21,16.48C1200.73,1006.19,1204.57,1005.57,1208.4,1004.22z"/>
			<path class="st1" d="M1335.07,1016.66l-6.43-3.73c-6.63,3.11-14.51,4.35-21.46,4.35c-22.91,0-40.22-13.16-40.22-36.49
				c0-25.19,20.11-38.14,41.46-38.14c5.7,0,12.44,0.93,18.35,2.9l5.7-2.9v24.67l-11.61-17.41c-3.83-1.24-7.36-1.66-10.37-1.66
				c-15.24,0-25.81,9.95-25.81,29.02c0,18.97,10.47,31.82,25.5,31.82c2.8,0,6.43-0.41,10.37-1.66v-17.1l-16.48-9.12h30.99V1016.66z"
				/>
			<path class="st1" d="M1419.45,1016.25h-31.93l6.43-6.12v-0.1l-7.77-17.72h-24.25l-7.36,16.58v0.1l10.16,7.26h-20.52l35.03-76.81
				h0.62l32.96,71.21L1419.45,1016.25z M1383.79,986.71l-9.64-22.08l-9.74,22.08H1383.79z"/>
			<path class="st1" d="M1477.39,941.62v23.22l-10.57-15.55h-14.82v60.84l6.43,6.12h-29.54l6.43-6.12v-60.84h-14.82l-10.57,15.55
				v-23.22l9.12,2.07h49.24L1477.39,941.62z"/>
			<path class="st1" d="M1541.34,995.1v15.55h-0.1v5.6h-57.73l6.53-6.22v-60.12l-6.53-6.22h55.04v21.14l-10.57-15.55h-21.25v26.85
				h14.82l8.4-9.85v24.88l-8.4-9.43h-14.82v28.92h24.05L1541.34,995.1z"/>
		</g>
		<path class="st1" d="M674,872.26c-80.23,0-145.25,65.03-145.25,145.25c0,80.2,65.03,145.22,145.25,145.22
			c80.2,0,145.22-65.03,145.22-145.22C819.22,937.28,754.2,872.26,674,872.26z M651.33,925.2c0.06,0.04,0.12,0.08,0.18,0.13
			c4.42,3.63,8.5,7.61,12.15,11.93c3.66,4.31,6.92,8.92,9.7,13.78c2.78-4.86,6.05-9.47,9.7-13.78c3.65-4.32,7.73-8.3,12.15-11.93
			c0.82-0.67,2.03-0.56,2.71,0.26c0.67,0.82,0.56,2.03-0.26,2.71c-0.06,0.05-0.12,0.09-0.18,0.13l-0.01,0.01
			c-4.6,2.97-8.98,6.35-13.01,10.15c-4.04,3.79-7.77,7.95-11.09,12.46c-3.32-4.51-7.05-8.67-11.09-12.46
			c-4.03-3.8-8.41-7.18-13.01-10.15l-0.01,0c-0.89-0.58-1.15-1.77-0.57-2.66C649.24,924.88,650.43,924.62,651.33,925.2z
			 M730.61,973.91c-0.03,0.01-0.07,0.02-0.11,0.02c-11.35,2.2-22.33,6.61-32.09,13.04c-4.87,3.22-9.49,6.87-13.67,10.99
			c-4.22,4.09-8.02,8.62-11.4,13.46c-3.38-4.84-7.18-9.37-11.4-13.46c-4.18-4.12-8.8-7.77-13.67-10.99
			c-9.75-6.43-20.74-10.84-32.09-13.04c-1.04-0.2-1.72-1.21-1.52-2.25s1.21-1.72,2.25-1.52c0.03,0.01,0.07,0.02,0.11,0.02
			c11.69,2.93,22.75,8.12,32.35,15.21c4.79,3.55,9.27,7.51,13.26,11.9c4.03,4.35,7.6,9.11,10.71,14.13
			c3.11-5.01,6.67-9.77,10.71-14.13c3.99-4.39,8.47-8.35,13.26-11.9c9.59-7.1,20.66-12.29,32.35-15.21
			c1.03-0.26,2.07,0.36,2.33,1.39C732.26,972.6,731.64,973.65,730.61,973.91z M737.8,980.82L737.8,980.82
			c1.06-0.17,2.04,0.55,2.2,1.6c0.16,1.05-0.55,2.03-1.6,2.19c-0.03,0-0.06,0.01-0.09,0.01c-12.82,1.38-25.39,5.52-36.56,12.22
			c-5.58,3.35-10.82,7.29-15.59,11.78c-4.76,4.48-9.08,9.48-12.81,14.89c-3.74-5.41-8.05-10.41-12.81-14.89
			c-4.76-4.49-10.01-8.43-15.59-11.78c-11.17-6.7-23.74-10.84-36.56-12.22c-1.05-0.11-1.82-1.06-1.7-2.11
			c0.11-1.05,1.06-1.82,2.11-1.7c0.03,0,0.06,0.01,0.09,0.01l0.01,0c13.26,2.08,26.02,7.01,37.07,14.4
			c5.53,3.69,10.65,7.95,15.24,12.72c4.59,4.76,8.67,9.98,12.14,15.57c3.47-5.59,7.55-10.82,12.14-15.57
			c4.59-4.76,9.71-9.02,15.24-12.72C711.78,987.83,724.54,982.9,737.8,980.82z M723.27,963.78c-0.04,0.01-0.08,0.03-0.11,0.04
			c-4.95,1.4-9.81,3.19-14.46,5.45c-4.67,2.23-9.15,4.87-13.38,7.89c-4.23,3.03-8.22,6.41-11.9,10.13
			c-3.67,3.72-7.05,7.75-10.06,12.06c-3-4.31-6.39-8.34-10.06-12.06c-3.68-3.71-7.67-7.1-11.9-10.13
			c-4.23-3.02-8.71-5.67-13.38-7.89c-4.65-2.26-9.51-4.05-14.46-5.45c-1.02-0.29-1.62-1.35-1.33-2.37c0.29-1.02,1.35-1.62,2.37-1.33
			c0.04,0.01,0.08,0.02,0.11,0.04c5.06,1.77,9.98,3.93,14.63,6.55c4.67,2.59,9.1,5.58,13.22,8.92c4.12,3.35,7.95,7.03,11.44,11
			c3.47,3.98,6.62,8.23,9.36,12.72c2.74-4.49,5.88-8.73,9.36-12.72c3.48-3.97,7.31-7.65,11.44-11c4.12-3.34,8.55-6.34,13.22-8.92
			c4.65-2.62,9.57-4.79,14.63-6.55c1-0.35,2.1,0.18,2.45,1.18C724.79,962.34,724.27,963.43,723.27,963.78z M716.45,954.14
			c-0.04,0.02-0.08,0.04-0.12,0.05l-0.15,0.06l-6.28,2.59c-2.05,0.96-4.1,1.95-6.08,3.07c-3.98,2.2-7.81,4.71-11.44,7.5
			c-3.62,2.79-7.04,5.87-10.23,9.19c-3.19,3.32-6.13,6.89-8.79,10.67c-2.67-3.78-5.61-7.35-8.79-10.67
			c-3.19-3.32-6.61-6.4-10.23-9.19c-3.62-2.79-7.45-5.3-11.44-7.5c-1.98-1.12-4.03-2.11-6.08-3.07l-6.28-2.59l-0.14-0.06
			c-0.98-0.4-1.45-1.53-1.04-2.51c0.4-0.98,1.53-1.45,2.51-1.04c0.04,0.02,0.08,0.04,0.12,0.06l6.34,3.15
			c2.06,1.14,4.1,2.31,6.06,3.6c3.95,2.55,7.69,5.39,11.18,8.49c3.5,3.1,6.74,6.46,9.72,10.03c2.98,3.57,5.68,7.36,8.08,11.31
			c2.4-3.95,5.1-7.74,8.08-11.31c2.98-3.57,6.23-6.93,9.72-10.03c3.49-3.1,7.24-5.94,11.18-8.49c1.96-1.29,4.01-2.46,6.07-3.6
			l6.34-3.15c0.95-0.47,2.1-0.08,2.58,0.87C717.79,952.51,717.4,953.66,716.45,954.14z M709.76,945.09
			c-0.04,0.02-0.09,0.05-0.13,0.07l-0.03,0.01c-3.56,1.66-7.03,3.51-10.39,5.59c-3.34,2.11-6.54,4.43-9.6,6.96
			c-6.11,5.06-11.6,10.94-16.25,17.47c-4.65-6.53-10.14-12.41-16.25-17.47c-3.06-2.53-6.27-4.85-9.6-6.96
			c-3.35-2.08-6.83-3.93-10.39-5.59l-0.03-0.01c-0.96-0.45-1.38-1.59-0.93-2.55s1.59-1.38,2.55-0.93c0.05,0.02,0.09,0.05,0.14,0.07
			c3.56,2.02,7.01,4.22,10.28,6.64c3.26,2.44,6.35,5.09,9.26,7.91c5.81,5.65,10.85,12.02,14.97,18.9
			c4.12-6.88,9.16-13.25,14.97-18.9c2.91-2.82,6-5.47,9.26-7.91c3.28-2.42,6.72-4.62,10.28-6.64c0.92-0.52,2.1-0.2,2.62,0.72
			C711.01,943.4,710.68,944.57,709.76,945.09z M703.53,936.46c-0.05,0.03-0.1,0.06-0.15,0.09l-0.02,0.01
			c-2.91,1.62-5.75,3.38-8.5,5.29c-2.74,1.93-5.37,4.02-7.89,6.25c-5.04,4.46-9.63,9.49-13.62,15.01
			c-3.99-5.51-8.58-10.55-13.62-15.01c-2.52-2.23-5.16-4.32-7.89-6.25c-2.75-1.92-5.59-3.68-8.5-5.29l-0.02-0.01
			c-0.93-0.52-1.26-1.69-0.75-2.61c0.52-0.93,1.69-1.26,2.61-0.75c0.05,0.03,0.1,0.06,0.15,0.09c2.87,1.97,5.63,4.06,8.26,6.3
			c2.63,2.25,5.11,4.64,7.46,7.15c4.7,5.02,8.83,10.52,12.28,16.38c3.45-5.86,7.58-11.36,12.28-16.38c2.35-2.51,4.84-4.9,7.46-7.15
			c2.63-2.24,5.4-4.33,8.26-6.3c0.88-0.6,2.07-0.38,2.67,0.5C704.63,934.66,704.41,935.86,703.53,936.46z M622.22,1063.52h-18.26
			v10.54h12.99v6.29h-12.99v16.8h-6.23v-39.89h24.49V1063.52z M679.44,1096.98l-2.39-3.2l-2.1,1.11c-2.59,1.51-5.77,2.27-9.52,2.27
			c-3.87,0-7.22-1.02-9.96-3.09c-2.74-2.07-4.11-4.98-4.11-8.74c0-3,1.05-5.62,3.15-7.83l5.88-6.26l-1.4-1.78
			c-1.34-1.69-1.89-3.38-1.75-5.15c0.15-1.81,0.93-3.41,2.42-4.83c1.51-1.4,3.23-2.13,5.15-2.21h0.49c1.43,0,2.74,0.38,3.96,1.16
			c1.19,0.82,2.1,1.89,2.65,3.26c0.61,1.34,0.82,2.71,0.58,4.16c-0.2,1.43-0.79,2.68-1.72,3.76l-2.24,2.18l9.67,13.13l3.17-2.13
			l3.58,5.21l-2.88,2.04l5.13,6.93H679.44z M747.88,1092.61c-3.49,3.03-7.48,4.54-11.94,4.54c-5.33,0-9.87-1.95-13.63-5.85
			c-3.79-3.93-5.68-8.62-5.68-14.15c0-5.5,1.89-10.16,5.68-14.07c3.76-3.87,8.3-5.82,13.63-5.82c3.76,0,7.25,1.05,10.48,3.12
			l-4.25,4.8c-1.86-1.08-3.96-1.6-6.23-1.6c-3.61,0-6.67,1.31-9.2,3.99c-2.56,2.65-3.84,5.85-3.84,9.58c0,3.79,1.28,6.99,3.84,9.7
			c2.53,2.71,5.59,4.05,9.2,4.05c2.1,0,4.11-0.52,6.06-1.6c1.92-1.05,3.52-2.5,4.8-4.43l1.4-2.01l-6.93-6.09l4.14-4.72l9.76,8.53
			C753.79,1085.56,751.34,1089.58,747.88,1092.61z M749.19,1006.43c-4.4,0.52-8.78,1.09-13.12,1.84c-4.35,0.76-8.66,1.65-12.95,2.66
			c-8.57,2.06-17,4.68-25.29,7.8c-8.28,3.15-16.38,6.83-24.47,10.8c-8.1-3.97-16.19-7.66-24.47-10.8
			c-8.29-3.12-16.72-5.74-25.29-7.8c-4.29-1.02-8.61-1.9-12.95-2.66c-4.35-0.75-8.73-1.33-13.12-1.84
			c-8.81-0.96-17.69-1.35-26.71-1.5c8.81-1.97,17.9-2.72,26.97-2.49c9.08,0.17,18.15,1.41,27.01,3.52
			c8.85,2.15,17.49,5.16,25.66,9.12c8.18,3.92,15.95,8.7,22.9,14.46c-6.53-5.76-13.53-10.9-20.99-15.18
			c-7.42-4.35-15.31-7.8-23.43-10.45c-2.04-0.62-4.08-1.26-6.15-1.77c-1.03-0.29-2.06-0.56-3.1-0.79c-1.04-0.23-2.07-0.51-3.12-0.7
			c-4.17-0.89-8.39-1.48-12.63-1.88c-8.47-0.84-17.02-0.76-25.45,0.29l-6.27,0.78l3.97-4.91l15.87-19.63
			c5.36-6.49,10.66-13.02,16.09-19.45c5.38-6.47,10.85-12.87,16.33-19.26c5.52-6.36,11.04-12.72,16.72-18.95
			c-4.82,6.92-9.81,13.7-14.79,20.49c-5.02,6.76-10.06,13.5-15.18,20.18c-5.07,6.72-10.27,13.33-15.42,19.99l-11.96,15.15
			c6.87-0.45,13.77-0.29,20.6,0.47c8.81,1.06,17.51,3.09,25.8,6.19c4.13,1.57,8.2,3.32,12.12,5.34c3.91,2.05,7.7,4.3,11.34,6.77
			c7.24,4.98,13.93,10.75,19.64,17.33c-4.59-6.06-9.77-11.59-15.49-16.45c-5.71-4.86-11.95-9.02-18.57-12.39
			c-3.29-1.74-6.74-3.11-10.2-4.42c-3.47-1.28-7.02-2.35-10.62-3.19c-7.19-1.7-14.57-2.6-21.95-2.56l-5.39,0.04l3.39-4.19
			l13.34-16.47c4.52-5.43,8.97-10.92,13.56-16.29c4.54-5.41,9.17-10.76,13.81-16.1c4.68-5.3,9.36-10.61,14.21-15.78
			c-3.97,5.87-8.12,11.6-12.25,17.34c-4.18,5.7-8.38,11.39-12.65,17.02c-4.23,5.67-8.59,11.22-12.9,16.82l-9.99,12.68
			c6.08,0.36,12.12,1.27,17.99,2.83c7.51,2.04,14.79,4.95,21.49,8.87c0.85,0.47,1.68,0.96,2.5,1.48c0.82,0.52,1.65,1.02,2.46,1.55
			c1.6,1.09,3.19,2.19,4.71,3.39c3.05,2.36,6,4.86,8.7,7.61c5.41,5.46,10.15,11.56,13.86,18.21c3.7-6.65,8.45-12.75,13.86-18.21
			c2.7-2.74,5.65-5.24,8.7-7.61c1.52-1.2,3.11-2.3,4.71-3.39c0.81-0.53,1.64-1.03,2.46-1.55c0.81-0.53,1.65-1.02,2.5-1.48
			c6.7-3.92,13.98-6.84,21.49-8.87c5.88-1.56,11.92-2.47,17.99-2.83l-9.99-12.68c-4.3-5.61-8.67-11.16-12.9-16.82
			c-4.28-5.63-8.47-11.32-12.65-17.02c-4.14-5.74-8.28-11.47-12.25-17.34c4.85,5.17,9.52,10.48,14.21,15.78
			c4.64,5.34,9.26,10.68,13.81,16.1c4.59,5.37,9.05,10.86,13.56,16.29l13.34,16.47l3.39,4.19l-5.39-0.04
			c-7.38-0.05-14.76,0.86-21.95,2.56c-3.6,0.84-7.15,1.91-10.62,3.19c-3.46,1.31-6.91,2.69-10.2,4.42
			c-6.62,3.36-12.87,7.53-18.57,12.39c-5.71,4.85-10.9,10.38-15.49,16.45c5.72-6.58,12.4-12.34,19.64-17.33
			c3.64-2.46,7.43-4.72,11.34-6.77c3.92-2.02,7.99-3.76,12.12-5.34c8.29-3.1,16.99-5.13,25.8-6.19c6.83-0.76,13.73-0.92,20.6-0.47
			L750.9,978.3c-5.15-6.66-10.35-13.27-15.42-19.99c-5.12-6.68-10.16-13.42-15.18-20.18c-4.98-6.79-9.97-13.57-14.79-20.49
			c5.69,6.23,11.2,12.59,16.72,18.95c5.48,6.39,10.95,12.79,16.33,19.26c5.43,6.43,10.73,12.96,16.09,19.45l15.87,19.63l3.97,4.91
			l-6.27-0.78c-8.43-1.05-16.99-1.13-25.45-0.29c-4.23,0.4-8.46,0.99-12.63,1.88c-1.05,0.19-2.08,0.47-3.12,0.7
			c-1.04,0.23-2.07,0.5-3.1,0.79c-2.07,0.51-4.11,1.15-6.15,1.77c-8.12,2.65-16.01,6.1-23.43,10.45
			c-7.46,4.29-14.47,9.42-20.99,15.18c6.95-5.76,14.72-10.54,22.9-14.46c8.17-3.96,16.82-6.97,25.66-9.12
			c8.86-2.11,17.93-3.34,27.01-3.52c9.07-0.23,18.16,0.52,26.97,2.49C766.88,1005.08,757.99,1005.47,749.19,1006.43z"/>
		<g>
			<rect x="878.2" y="872.26" class="st1" width="5.92" height="290.48"/>
		</g>
	</g>
	<g>
		<linearGradient id="SVGID_1_" gradientUnits="userSpaceOnUse" x1="879.1315" y1="1057.0927" x2="1528.613" y2="1058.8705">
			<stop  offset="0" style="stop-color:#FFFFFF"/>
			<stop  offset="0.0559" style="stop-color:#FFFBEE"/>
			<stop  offset="0.1926" style="stop-color:#FFF1C3"/>
			<stop  offset="0.3311" style="stop-color:#FFE99B"/>
			<stop  offset="0.4686" style="stop-color:#FEE277"/>
			<stop  offset="0.6049" style="stop-color:#FEDC56"/>
			<stop  offset="0.7396" style="stop-color:#FDD93C"/>
			<stop  offset="0.8722" style="stop-color:#FDD728"/>
			<stop  offset="1" style="stop-color:#FDD620"/>
		</linearGradient>
		<path class="st2" d="M1405.39,1045.89c-3.07,0-5.65,1.21-7.74,3.62c-2.09,2.41-3.14,5.43-3.14,9.05c0,3.58,1.05,6.58,3.14,8.99
			c2.09,2.42,4.68,3.62,7.74,3.62c3.09,0,5.67-1.2,7.76-3.61c2.08-2.4,3.13-5.41,3.13-9.01c0-3.62-1.04-6.63-3.13-9.05
			C1411.07,1047.1,1408.48,1045.89,1405.39,1045.89z"/>
		<linearGradient id="SVGID_2_" gradientUnits="userSpaceOnUse" x1="879.1318" y1="1056.9659" x2="1528.6133" y2="1058.7437">
			<stop  offset="0" style="stop-color:#FFFFFF"/>
			<stop  offset="0.0559" style="stop-color:#FFFBEE"/>
			<stop  offset="0.1926" style="stop-color:#FFF1C3"/>
			<stop  offset="0.3311" style="stop-color:#FFE99B"/>
			<stop  offset="0.4686" style="stop-color:#FEE277"/>
			<stop  offset="0.6049" style="stop-color:#FEDC56"/>
			<stop  offset="0.7396" style="stop-color:#FDD93C"/>
			<stop  offset="0.8722" style="stop-color:#FDD728"/>
			<stop  offset="1" style="stop-color:#FDD620"/>
		</linearGradient>
		<path class="st3" d="M1451.71,1045.89c-3.07,0-5.65,1.21-7.74,3.62c-2.09,2.41-3.14,5.43-3.14,9.05c0,3.58,1.05,6.58,3.14,8.99
			c2.09,2.42,4.68,3.62,7.74,3.62c3.09,0,5.67-1.2,7.76-3.61c2.08-2.4,3.13-5.41,3.13-9.01c0-3.62-1.04-6.63-3.13-9.05
			C1457.38,1047.1,1454.79,1045.89,1451.71,1045.89z"/>
		<linearGradient id="SVGID_3_" gradientUnits="userSpaceOnUse" x1="879.132" y1="1056.9254" x2="1528.6134" y2="1058.7031">
			<stop  offset="0" style="stop-color:#FFFFFF"/>
			<stop  offset="0.0559" style="stop-color:#FFFBEE"/>
			<stop  offset="0.1926" style="stop-color:#FFF1C3"/>
			<stop  offset="0.3311" style="stop-color:#FFE99B"/>
			<stop  offset="0.4686" style="stop-color:#FEE277"/>
			<stop  offset="0.6049" style="stop-color:#FEDC56"/>
			<stop  offset="0.7396" style="stop-color:#FDD93C"/>
			<stop  offset="0.8722" style="stop-color:#FDD728"/>
			<stop  offset="1" style="stop-color:#FDD620"/>
		</linearGradient>
		<polygon class="st4" points="1519.99,1029.52 1472.14,1029.54 1063.75,1029.54 884.11,1029.54 884.11,1086.15 1063.75,1086.15 
			1472.14,1086.15 1519.99,1086.15 1540.88,1086.15 1540.88,1029.52 		"/>
	</g>
	<g>
		<path class="st1" d="M1337.87,1062.89c0,2.33-0.66,4.38-1.99,6.15c-1.16,1.56-2.67,2.73-4.54,3.49c-1.72,0.71-3.77,1.06-6.15,1.06
			c-2.96,0-5.86-0.68-8.71-2.03l-0.25-0.46c0.39-1.62,0.59-3.92,0.59-6.91l0.21-0.21h1.35l0.19,0.21v0.49
			c0,0.79,0.08,1.83,0.25,3.13c0.51,0.9,1.42,1.68,2.73,2.33c1.37,0.68,2.79,1.01,4.27,1.01c2.79,0,4.72-0.97,5.79-2.92
			c0.55-1,0.83-2.04,0.83-3.11c0-1.8-0.75-3.09-2.26-3.87c-0.75-0.38-1.95-0.7-3.61-0.95c-3.76-0.58-6.24-1.3-7.42-2.18
			c-1.79-1.32-2.68-3.38-2.68-6.15c0-2.89,0.97-5.19,2.92-6.91c2.06-1.8,4.92-2.71,8.58-2.71c3.3,0,5.96,0.53,7.99,1.59l0.15,0.51
			c-0.34,1.68-0.54,3.69-0.61,6.05l-0.23,0.21h-1.33l-0.21-0.21c-0.04-1.69-0.11-2.79-0.21-3.3c-0.44-0.66-1.2-1.23-2.28-1.69
			c-1.16-0.48-2.36-0.72-3.62-0.72c-1.89,0-3.38,0.5-4.48,1.5c-1.03,0.95-1.54,2.16-1.54,3.66c0,1.62,0.58,2.81,1.75,3.57
			c0.76,0.49,2.56,0.97,5.39,1.42c0.3,0.04,1.12,0.18,2.47,0.42c0.83,0.14,1.6,0.35,2.3,0.61c1.42,0.54,2.49,1.35,3.21,2.45
			C1337.48,1059.61,1337.87,1061.1,1337.87,1062.89z"/>
		<path class="st1" d="M1372.21,1068.96l-0.97,2.16c-2.97,1.63-6.3,2.45-9.98,2.45c-7.36,0-12.39-2.65-15.09-7.95
			c-1.25-2.45-1.88-5.11-1.88-7.97c0-4.62,1.54-8.31,4.61-11.06c3.14-2.83,7.43-4.25,12.88-4.25c3.45,0,6.83,0.63,10.13,1.88
			l0.27,0.32c-0.48,1.95-0.77,4.22-0.89,6.83l-0.19,0.21h-1.25l-0.21-0.23c-0.04-1.71-0.12-2.89-0.23-3.55
			c-1.76-1.99-4.31-2.98-7.63-2.98c-3.42,0-6.11,1.08-8.05,3.26c-1.95,2.17-2.92,5.12-2.92,8.84c0,5.03,1.73,8.89,5.2,11.58
			c1.85,1.44,4.32,2.16,7.42,2.16c2.82,0,5.57-0.73,8.27-2.18L1372.21,1068.96z"/>
		<path class="st1" d="M1410.44,1072.57l-0.21,0.21c-1.39-0.08-3.57-0.13-6.51-0.13c-3.02,0-5.19,0.04-6.51,0.13l-0.21-0.19v-1.44
			l0.23-0.21c1.44-0.08,2.26-0.16,2.47-0.21c0.41-0.11,0.65-0.37,0.72-0.78c0.18-1.01,0.27-3.2,0.27-6.55v-5.09
			c-0.72-0.07-3-0.11-6.85-0.11c-3.55,0-5.89,0.04-7.02,0.11v5.09c0,3.35,0.09,5.54,0.28,6.55c0.07,0.41,0.31,0.67,0.72,0.78
			c0.21,0.06,1.04,0.13,2.47,0.21l0.21,0.21v1.42l-0.19,0.21c-1.41-0.08-3.58-0.13-6.51-0.13c-3.03,0-5.2,0.04-6.51,0.13l-0.21-0.19
			v-1.44l0.21-0.21c1.44-0.08,2.26-0.16,2.47-0.21c0.41-0.11,0.65-0.37,0.72-0.78c0.18-1.01,0.27-3.2,0.27-6.55v-11.18
			c0-3.35-0.09-5.54-0.27-6.55c-0.07-0.41-0.31-0.67-0.72-0.78c-0.21-0.06-1.04-0.13-2.47-0.21l-0.21-0.21v-1.44l0.21-0.19
			c1.35,0.08,3.52,0.13,6.51,0.13c3.06,0,5.23-0.04,6.51-0.13l0.19,0.19v1.46l-0.21,0.19c-1.44,0.08-2.26,0.16-2.47,0.21
			c-0.41,0.11-0.65,0.37-0.72,0.78c-0.18,1.01-0.28,3.2-0.28,6.55v3.49c1.49,0.07,3.55,0.11,6.17,0.11c4.12,0,6.68-0.04,7.7-0.11
			v-3.49c0-3.35-0.09-5.54-0.27-6.55c-0.07-0.41-0.31-0.67-0.72-0.78c-0.21-0.06-1.04-0.13-2.47-0.21l-0.23-0.21v-1.44l0.21-0.19
			c1.37,0.08,3.54,0.13,6.51,0.13c3.07,0,5.24-0.04,6.51-0.13l0.21,0.19v1.46l-0.19,0.19c-1.47,0.08-2.3,0.16-2.5,0.21
			c-0.41,0.11-0.65,0.37-0.72,0.78c-0.18,1.01-0.27,3.2-0.27,6.55v11.18c0,3.35,0.09,5.54,0.27,6.55c0.07,0.41,0.31,0.67,0.72,0.78
			c0.21,0.06,1.04,0.13,2.47,0.21l0.21,0.21V1072.57z"/>
		<path class="st1" d="M1448.04,1057.04c0,5.2-1.51,9.28-4.54,12.24c-2.95,2.88-6.97,4.31-12.07,4.31c-4.82,0-8.6-1.36-11.35-4.07
			c-2.75-2.71-4.12-6.49-4.12-11.32c0-6.78,2.59-11.47,7.76-14.08c2.35-1.18,5.25-1.78,8.69-1.78c4.92,0,8.75,1.29,11.48,3.87
			C1446.65,1048.83,1448.04,1052.44,1448.04,1057.04z M1441.52,1058.14c0-4.09-0.82-7.33-2.46-9.74c-1.64-2.4-4.05-3.6-7.22-3.6
			c-4.19,0-6.96,1.88-8.33,5.64c-0.71,1.93-1.06,4.09-1.06,6.49c0,4.35,0.8,7.79,2.41,10.32c1.66,2.61,4.15,3.91,7.46,3.91
			c4.02,0,6.72-1.98,8.1-5.94C1441.16,1063.12,1441.52,1060.76,1441.52,1058.14z"/>
		<path class="st1" d="M1486.27,1057.04c0,5.2-1.51,9.28-4.54,12.24c-2.95,2.88-6.97,4.31-12.07,4.31c-4.82,0-8.6-1.36-11.35-4.07
			c-2.75-2.71-4.12-6.49-4.12-11.32c0-6.78,2.59-11.47,7.76-14.08c2.35-1.18,5.25-1.78,8.69-1.78c4.92,0,8.75,1.29,11.48,3.87
			C1484.88,1048.83,1486.27,1052.44,1486.27,1057.04z M1479.76,1058.14c0-4.09-0.82-7.33-2.46-9.74c-1.64-2.4-4.05-3.6-7.22-3.6
			c-4.19,0-6.96,1.88-8.33,5.64c-0.71,1.93-1.06,4.09-1.06,6.49c0,4.35,0.8,7.79,2.41,10.32c1.66,2.61,4.15,3.91,7.46,3.91
			c4.02,0,6.72-1.98,8.1-5.94C1479.39,1063.12,1479.76,1060.76,1479.76,1058.14z"/>
		<path class="st1" d="M1515.05,1065.6c-0.31,2.06-0.47,4.38-0.47,6.98l-0.21,0.21l-15.37-0.13c-2.57,0-4.38,0.04-5.43,0.13
			l-0.21-0.21v-0.59l0.11-0.25c1.04-0.66,1.61-1.08,1.69-1.25c0.13-0.25,0.2-1.19,0.23-2.81l0.06-4.74v-10.72
			c0-3.35-0.09-5.54-0.27-6.55c-0.07-0.41-0.31-0.67-0.72-0.78c-0.21-0.06-1.04-0.13-2.47-0.21l-0.21-0.21v-1.44l0.21-0.19
			c1.45,0.08,3.58,0.13,6.38,0.13c2.9,0,5.11-0.04,6.62-0.13l0.21,0.19v1.46l-0.21,0.19c-1.44,0.08-2.26,0.16-2.47,0.21
			c-0.41,0.11-0.65,0.37-0.72,0.78c-0.18,1.01-0.28,3.2-0.28,6.55v12.64c0,1.85,0.04,3.64,0.11,5.37h2.88
			c4.12,0,6.64-0.16,7.57-0.49c0.16-0.06,0.27-0.13,0.34-0.23c0.14-0.2,0.27-0.62,0.4-1.27l0.51-2.62l0.21-0.23h1.29L1515.05,1065.6
			z"/>
	</g>
</g>
</svg>
