<svg width="87" height="87" viewBox="0 0 87 87" fill="none" xmlns="http://www.w3.org/2000/svg">
<path d="M77.4604 78.8494C64.1479 89.7168 22.5802 89.7168 9.53934 78.8494C-3.7732 67.982 -2.4148 21.524 9.53934 9.29824C21.4935 -2.92754 65.5063 -2.92754 77.4604 9.29824C89.4146 21.524 90.773 67.9822 77.4604 78.8494Z" fill="#5CA4DA"/>
<path d="M43.7717 59.8316C31.8176 69.3406 18.505 74.2309 6.00762 74.5025C-3.22972 58.7448 -1.32785 20.4374 9.53954 9.29841C19.3202 -0.753859 50.0204 -2.65573 67.68 3.59298C72.0268 21.5242 63.0613 44.3455 43.7717 59.8316Z" fill="#6DAFE0"/>
<path d="M49.477 54.6697H37.7945V48.9643C37.7945 46.7908 38.0662 45.1608 38.6096 44.3456C39.1529 43.2589 40.2397 41.9005 42.1416 39.9986L47.3035 34.565C48.1186 33.7499 48.3903 32.3915 48.3903 31.0331C48.3903 29.6747 48.1186 28.3163 47.0319 27.5012C46.2168 26.4144 45.13 26.1428 43.7716 26.1428C42.4132 26.1428 41.3264 26.6861 40.5113 27.7728C39.6962 28.8596 39.1529 30.4896 38.8813 32.3915H26.6555C27.1988 27.2295 29.1007 23.1542 32.3609 20.4374C35.6212 17.7206 39.4248 16.0903 44.3151 16.0903C49.2054 16.0903 53.0089 17.4487 55.9976 19.8939C58.986 22.6107 60.6162 26.1426 60.6162 30.7613C60.6162 32.9348 60.3446 34.2932 59.8011 35.3799C59.2578 36.4667 58.986 37.01 58.7144 37.5535C58.4427 38.0967 57.8992 38.6402 57.356 39.4553C56.5408 40.2704 55.9976 40.8137 55.7259 41.0854C54.3675 42.4438 53.2808 43.5305 52.194 44.6173C51.1073 45.704 50.2921 46.5192 50.0205 47.3341C49.7489 48.1492 49.4772 48.9641 49.4772 50.3225V54.6697H49.477ZM36.9796 64.4504C36.9796 60.6468 39.968 57.6582 43.7718 57.6582C47.5755 57.6582 50.564 60.6466 50.564 64.4504C50.564 68.2541 47.5755 71.2425 43.7718 71.2425C39.968 71.2425 36.9796 68.2539 36.9796 64.4504Z" fill="white"/>
</svg>
