<svg width="87" height="87" viewBox="0 0 87 87" fill="none" xmlns="http://www.w3.org/2000/svg">
<g clip-path="url(#clip0)">
<path d="M43.5005 87.0002C67.5172 87.0002 86.9865 67.5245 86.9865 43.5001C86.9865 19.4757 67.5172 0 43.5005 0C19.4839 0 0.0145264 19.4757 0.0145264 43.5001C0.0145264 67.5245 19.4839 87.0002 43.5005 87.0002Z" fill="#00DF76"/>
<path d="M43.5 0C43.4803 0 43.4607 0.000679604 43.441 0.000679604V86.9993C43.4607 86.9993 43.4803 87 43.5 87C67.5167 87 86.986 67.5244 86.986 43.4999C86.986 19.4754 67.5167 0 43.5 0Z" fill="#00AB5E"/>
<path d="M18.9142 44.3642L36.5031 61.953C37.2702 62.7201 38.514 62.7201 39.2811 61.953L68.157 33.0772C68.9241 32.3101 68.9241 31.0662 68.157 30.2991L62.9011 25.0432C62.134 24.2761 60.8901 24.2761 60.123 25.0432L39.1204 46.0455C38.3533 46.8126 37.1094 46.8126 36.3423 46.0455L26.9303 36.6335C26.1784 35.8815 24.9644 35.8646 24.1917 36.5951L18.9537 41.5476C18.1497 42.3079 18.1318 43.5818 18.9142 44.3642Z" fill="#FFF5F5"/>
<path d="M62.9011 25.0431C62.134 24.276 60.8902 24.276 60.1231 25.0431L43.441 41.7252V57.7932L68.157 33.0772C68.9241 32.3101 68.9241 31.0663 68.157 30.299L62.9011 25.0431Z" fill="#DFEBF1"/>
</g>
<defs>
<clipPath id="clip0">
<rect width="87" height="87" fill="white"/>
</clipPath>
</defs>
</svg>
