<svg width="111" height="81" viewBox="0 0 111 81" fill="none" xmlns="http://www.w3.org/2000/svg">
<path d="M25.1368 0C32.3543 0 38.3274 2.75 43.5538 8.5C46.0426 11 47.7848 14.25 49.278 18C50.7713 21.75 51.5179 25.5 51.5179 29.25C51.5179 37.25 49.0292 45.25 43.8027 53.25C38.5762 61.5 31.8565 68.25 23.1457 74C15.9283 78.75 10.204 81.25 5.97309 81.25C4.23094 81.25 2.98655 80.75 1.74215 79.75C0.497758 78.5 0 77.25 0 75.5C0 73 1.49327 71 4.7287 69.25C12.1951 65.25 17.9193 61.5 21.4036 57.5C24.639 54 26.3812 51.25 26.3812 49.5C26.3812 48 25.1368 47 22.648 46.5L20.9058 46.25H18.9148C13.4395 45.5 9.20852 43 5.72422 38.75C2.23991 34.5 0.746637 29.5 0.746637 23.5C0.746637 17.25 2.73767 12 6.96861 7.5C11.9462 2.5 17.9193 0 25.1368 0Z" fill="#FCCA35"/>
<path d="M84.8677 0C92.0852 0 98.0583 2.75 103.285 8.5C105.774 11 107.516 14.25 109.009 18C110.502 21.75 111.249 25.5 111.249 29.25C111.249 37.25 108.76 45.25 103.534 53.25C98.3072 61.5 91.5875 68.25 82.8767 74C75.6592 78.75 69.935 81.25 65.7041 81.25C63.9619 81.25 62.7175 80.75 61.4731 79.75C60.4776 78.75 59.731 77.5 59.731 75.75C59.731 73.25 61.2242 71.25 64.4597 69.5C71.926 65.5 77.6502 61.75 81.1345 57.75C84.37 54.25 86.1121 51.5 86.1121 49.75C86.1121 48.25 84.8677 47.25 82.3789 46.75L80.6368 46.5H78.6458C73.1704 45.75 68.9395 43.25 65.4552 39C61.9709 34.75 60.4776 29.75 60.4776 23.75C60.4776 17.5 62.4686 12.25 66.6996 7.75C71.4283 2.5 77.4014 0 84.8677 0Z" fill="#FCCA35"/>
</svg>
