<svg width="219" height="181" viewBox="0 0 219 181" fill="none" xmlns="http://www.w3.org/2000/svg">
<path d="M0 1.09912C15.6976 1.09912 15.6975 14.266 31.2037 14.266C46.9012 14.266 46.9012 1.09912 62.4073 1.09912C78.1049 1.09912 78.1049 14.266 93.8024 14.266C109.5 14.266 109.5 1.09912 125.006 1.09912C140.704 1.09912 140.704 14.266 156.21 14.266C171.907 14.266 171.907 1.09912 187.413 1.09912C203.111 1.09912 203.111 14.266 218.617 14.266" stroke="#333333" stroke-width="2.1832" stroke-miterlimit="10"/>
<path d="M0 28.7686C15.6976 28.7686 15.6975 41.9354 31.2037 41.9354C46.9012 41.9354 46.9012 28.7686 62.4073 28.7686C78.1049 28.7686 78.1049 41.9354 93.611 41.9354C109.309 41.9354 109.309 28.7686 124.815 28.7686C140.512 28.7686 140.512 41.9354 156.018 41.9354C171.716 41.9354 171.716 28.7686 187.222 28.7686C202.92 28.7686 202.92 41.9354 218.426 41.9354" stroke="#333333" stroke-width="2.1832" stroke-miterlimit="10"/>
<path d="M0 56.2472C15.6976 56.2472 15.6975 69.414 31.2037 69.414C46.9012 69.414 46.9012 56.2472 62.4073 56.2472C78.1049 56.2472 78.1049 69.414 93.611 69.414C109.309 69.414 109.309 56.2472 124.815 56.2472C140.512 56.2472 140.512 69.414 156.018 69.414C171.716 69.414 171.716 56.2472 187.222 56.2472C202.728 56.2472 202.92 69.414 218.426 69.414" stroke="#333333" stroke-width="2.1832" stroke-miterlimit="10"/>
<path d="M0 83.9166C15.6976 83.9166 15.6975 97.0835 31.2037 97.0835C46.9012 97.0835 46.9012 83.9166 62.4073 83.9166C78.1049 83.9166 78.1049 97.0835 93.611 97.0835C109.309 97.0835 109.309 83.9166 124.815 83.9166C140.512 83.9166 140.512 97.0835 156.018 97.0835C171.716 97.0835 171.716 83.9166 187.222 83.9166C202.728 83.9166 202.92 97.0835 218.426 97.0835" stroke="#333333" stroke-width="2.1832" stroke-miterlimit="10"/>
<path d="M0 111.586C15.6976 111.586 15.6975 124.753 31.2037 124.753C46.9012 124.753 46.9012 111.586 62.4073 111.586C78.1049 111.586 78.1049 124.753 93.611 124.753C109.309 124.753 109.309 111.586 124.815 111.586C140.512 111.586 140.512 124.753 156.018 124.753C171.716 124.753 171.716 111.586 187.222 111.586C202.728 111.586 202.92 124.753 218.426 124.753" stroke="#333333" stroke-width="2.1832" stroke-miterlimit="10"/>
<path d="M0 139.255C15.6976 139.255 15.6975 152.422 31.2037 152.422C46.9012 152.422 46.9012 139.255 62.4073 139.255C78.1049 139.255 78.1049 152.422 93.611 152.422C109.309 152.422 109.309 139.255 124.815 139.255C140.512 139.255 140.512 152.422 156.018 152.422C171.716 152.422 171.716 139.255 187.222 139.255C202.92 139.255 202.92 152.422 218.426 152.422" stroke="#333333" stroke-width="2.1832" stroke-miterlimit="10"/>
<path d="M0 166.734C15.6976 166.734 15.6975 179.901 31.2037 179.901C46.9012 179.901 46.9012 166.734 62.4073 166.734C78.1049 166.734 78.1049 179.901 93.611 179.901C109.309 179.901 109.309 166.734 124.815 166.734C140.512 166.734 140.512 179.901 156.018 179.901C171.716 179.901 171.716 166.734 187.222 166.734C202.728 166.734 202.92 179.901 218.426 179.901" stroke="#333333" stroke-width="2.1832" stroke-miterlimit="10"/>
</svg>
