<svg width="125" height="104" viewBox="0 0 125 104" fill="none" xmlns="http://www.w3.org/2000/svg">
<path d="M0 1.19299C8.95979 1.19299 8.95979 8.67579 17.8103 8.67579C26.7701 8.67579 26.7701 1.19299 35.6206 1.19299C44.5804 1.19299 44.5804 8.67579 53.5402 8.67579C62.5 8.67579 62.5 1.19299 71.3505 1.19299C80.3103 1.19299 80.3103 8.67579 89.1608 8.67579C98.1206 8.67579 98.1206 1.19299 106.971 1.19299C115.931 1.19299 115.931 8.67579 124.781 8.67579" stroke="#333333" stroke-width="2.1832" stroke-miterlimit="10"/>
<path d="M0 16.9177C8.95979 16.9177 8.95979 24.4005 17.8103 24.4005C26.7701 24.4005 26.7701 16.9177 35.6206 16.9177C44.5804 16.9177 44.5804 24.4005 53.4309 24.4005C62.3907 24.4005 62.3907 16.9177 71.2413 16.9177C80.201 16.9177 80.201 24.4005 89.0516 24.4005C98.0114 24.4005 98.0114 16.9177 106.862 16.9177C115.822 16.9177 115.822 24.4005 124.672 24.4005" stroke="#333333" stroke-width="2.1832" stroke-miterlimit="10"/>
<path d="M0 32.5339C8.95979 32.5339 8.95979 40.0167 17.8103 40.0167C26.7701 40.0167 26.7701 32.5339 35.6206 32.5339C44.5804 32.5339 44.5804 40.0167 53.4309 40.0167C62.3907 40.0167 62.3907 32.5339 71.2413 32.5339C80.201 32.5339 80.201 40.0167 89.0516 40.0167C98.0114 40.0167 98.0114 32.5339 106.862 32.5339C115.712 32.5339 115.822 40.0167 124.672 40.0167" stroke="#333333" stroke-width="2.1832" stroke-miterlimit="10"/>
<path d="M0 48.2587C8.95979 48.2587 8.95979 55.7415 17.8103 55.7415C26.7701 55.7415 26.7701 48.2587 35.6206 48.2587C44.5804 48.2587 44.5804 55.7415 53.4309 55.7415C62.3907 55.7415 62.3907 48.2587 71.2413 48.2587C80.201 48.2587 80.201 55.7415 89.0516 55.7415C98.0114 55.7415 98.0114 48.2587 106.862 48.2587C115.712 48.2587 115.822 55.7415 124.672 55.7415" stroke="#333333" stroke-width="2.1832" stroke-miterlimit="10"/>
<path d="M0 63.9834C8.95979 63.9834 8.95979 71.4662 17.8103 71.4662C26.7701 71.4662 26.7701 63.9834 35.6206 63.9834C44.5804 63.9834 44.5804 71.4662 53.4309 71.4662C62.3907 71.4662 62.3907 63.9834 71.2413 63.9834C80.201 63.9834 80.201 71.4662 89.0516 71.4662C98.0114 71.4662 98.0114 63.9834 106.862 63.9834C115.712 63.9834 115.822 71.4662 124.672 71.4662" stroke="#333333" stroke-width="2.1832" stroke-miterlimit="10"/>
<path d="M0 79.7081C8.95979 79.7081 8.95979 87.1909 17.8103 87.1909C26.7701 87.1909 26.7701 79.7081 35.6206 79.7081C44.5804 79.7081 44.5804 87.1909 53.4309 87.1909C62.3907 87.1909 62.3907 79.7081 71.2413 79.7081C80.201 79.7081 80.201 87.1909 89.0516 87.1909C98.0114 87.1909 98.0114 79.7081 106.862 79.7081C115.822 79.7081 115.822 87.1909 124.672 87.1909" stroke="#333333" stroke-width="2.1832" stroke-miterlimit="10"/>
<path d="M0 95.3243C8.95979 95.3243 8.95979 102.807 17.8103 102.807C26.7701 102.807 26.7701 95.3243 35.6206 95.3243C44.5804 95.3243 44.5804 102.807 53.4309 102.807C62.3907 102.807 62.3907 95.3243 71.2413 95.3243C80.201 95.3243 80.201 102.807 89.0516 102.807C98.0114 102.807 98.0114 95.3243 106.862 95.3243C115.712 95.3243 115.822 102.807 124.672 102.807" stroke="#333333" stroke-width="2.1832" stroke-miterlimit="10"/>
</svg>
